<svg width="300" height="300" inkscape:version="1.1.1 (3bf5ae0d25, 2021-09-20)" sodipodi:docname="AMA_Main - Copy.svg" version="1.1" viewBox="0 0 79.375 79.375" xmlns="http://www.w3.org/2000/svg" xmlns:inkscape="http://www.inkscape.org/namespaces/inkscape" xmlns:sodipodi="http://sodipodi.sourceforge.net/DTD/sodipodi-0.dtd">
	<sodipodi:namedview height="300px" bordercolor="#ffffff" borderopacity="1" fit-margin-bottom="0" fit-margin-left="0" fit-margin-right="0" fit-margin-top="0" inkscape:current-layer="layer1" inkscape:cx="123.04688" inkscape:cy="128.51563" inkscape:document-units="mm" inkscape:pagecheckerboard="1" inkscape:pageopacity="0" inkscape:pageshadow="0" inkscape:window-height="705" inkscape:window-maximized="1" inkscape:window-width="1366" inkscape:window-x="-8" inkscape:window-y="-8" inkscape:zoom="1.28" pagecolor="#505050" showborder="false" showgrid="false" units="px" viewbox-width="300"/>
	<g transform="translate(1679.2 -482.31)" fill="#fffffd" inkscape:groupmode="layer" inkscape:label="Layer 1">
		<path d="m-1679.2 482.31a0.013226 0.013226 0 0 0-0.012 0.0137v79.35a0.013226 0.013226 0 0 0 0.012 0.0117h79.35a0.013226 0.013226 0 0 0 0.014-0.0117v-79.35a0.013226 0.013226 0 0 0-0.014-0.0137zm0.014 0.0274h79.322v79.322h-79.322z" color="#000000" opacity=".44551" style="-inkscape-stroke:none"/>
		<g transform="matrix(.36104 0 0 .35634 -1739.5 313.35)" inkscape:label="Layer 1">
			<g fill="#fffffd">
				<path d="m275.6 484.14a6.6153 6.6153 0 0 0-4.1504 1.8906s-5.9017 5.7906-14.002 10.627c-6.9946 4.1762-16.248 7.9633-22.648 10.623-12.801 5.3197-41.924 12.094-41.924 12.094a6.6153 6.6153 0 0 0-5.1055 5.707s-7.826 66.657 32.076 120.69c6.1393 8.3136 14.231 16.272 22.811 22.723 15.062 11.325 30.67 17.873 30.67 17.873a6.6153 6.6153 0 0 0 4.707 0.16797s11.772-4.0016 24.812-12.328c10.968-7.0032 22.146-16.684 29.857-27.459 40.245-56.233 33.451-121.39 33.451-121.39a6.6153 6.6153 0 0 0-5.0488-5.7676s-31.567-7.6572-44.371-12.943c-5.7354-2.3678-14.33-6.7524-20.656-10.688-7.7632-4.8286-11.503-7.2358-16.092-10.57a6.6153 6.6153 0 0 0-4.3867-1.2461zm1.1016 14.9c3.5374 2.4286 6.6485 4.5781 12.389 8.1484 7.1036 4.4184 15.904 8.9192 22.596 11.682 13.312 5.4955 34.783 10.746 41.465 12.35 0.64094 11.134 1.7323 61.808-31.205 107.83-6.322 8.8334-16.534 17.822-26.221 24.008-9.5417 6.0925-16.775 8.9384-19.58 9.9883-3.0476-1.3616-13.808-6.3042-25.539-15.125-7.5726-5.6937-14.904-12.946-20.119-20.008-32.397-43.871-30.557-95.684-29.779-106.84 6.5211-1.5056 26.032-6.1174 39.168-11.576 6.2859-2.6122 16.028-6.5107 24.355-11.482 5.448-3.2528 9.5342-6.4693 12.471-8.9746z" color="#000000" style="-inkscape-stroke:none"/>
				<path d="m275.56 483.64c-1.6819 0.12724-3.265 0.84772-4.4648 2.0332-3e-3 3e-3 -5.8672 5.7529-13.906 10.553-6.9422 4.1449-16.181 7.931-22.584 10.592-12.692 5.2743-41.846 12.068-41.846 12.068-2.946 0.67153-5.1488 3.1341-5.4883 6.1367-6.8e-4 6e-3 -7.8658 66.83 32.17 121.04 6.1734 8.3598 14.295 16.347 22.912 22.826 15.119 11.368 30.773 17.933 30.775 17.934 1.6076 0.67901 3.4105 0.74191 5.0625 0.17969 0 0 11.828-4.018 24.922-12.379 11.014-7.0327 22.232-16.744 29.994-27.59 40.365-56.401 33.544-121.73 33.543-121.74v-2e-3c-0.30613-3.0094-2.4872-5.4996-5.4297-6.2012h-2e-3c-3e-3 -8.1e-4 -31.602-7.6796-44.295-12.92-5.697-2.3519-14.288-6.7326-20.584-10.648-7.7604-4.8269-11.485-7.2254-16.061-10.551h-2e-3c-1.3638-0.99109-3.0356-1.4664-4.7168-1.3398zm0.0742 0.9961c1.4456-0.10881 2.8821 0.29981 4.0547 1.1523a0.50005 0.50005 0 0 0 2e-3 0c4.6003 3.3432 8.3558 5.7599 16.121 10.59 6.3576 3.9544 14.955 8.3429 20.729 10.727 12.915 5.3318 44.445 12.967 44.445 12.967a0.50005 0.50005 0 0 0 2e-3 0c2.5336 0.6034 4.4032 2.7409 4.666 5.332a0.50005 0.50005 0 0 0 0 2e-3s6.764 64.988-33.359 121.05c-7.6612 10.705-18.799 20.355-29.721 27.328-12.987 8.2922-24.703 12.277-24.703 12.277a0.50005 0.50005 0 0 0-2e-3 0c-1.4205 0.48387-2.9672 0.42764-4.3496-0.15625a0.50005 0.50005 0 0 0-2e-3 0s-15.559-6.5318-30.562-17.812c-8.5425-6.4231-16.604-14.352-22.709-22.619-39.767-53.851-31.982-120.34-31.982-120.34a0.50005 0.50005 0 0 0 0-2e-3c0.29227-2.5847 2.1844-4.6982 4.7207-5.2754a0.50005 0.50005 0 0 0 2e-3 -2e-3s29.092-6.754 42.002-12.119c6.398-2.6588 15.666-6.4468 22.713-10.654 8.1593-4.8716 14.096-10.699 14.096-10.699a0.50005 0.50005 0 0 0 2e-3 -2e-3c1.0314-1.019 2.3902-1.6387 3.8359-1.748zm1.3477 13.99a0.50005 0.50005 0 0 0-0.60742 0.0312c-2.923 2.4938-6.9844 5.691-12.402 8.9258-8.2784 4.9427-17.999 8.8364-24.291 11.451-13.066 5.4297-32.574 10.046-39.09 11.551a0.50005 0.50005 0 0 0-0.38476 0.45118c-0.78106 11.208-2.639 63.143 29.875 107.17 5.2509 7.1106 12.609 14.388 20.221 20.111 11.777 8.8552 22.578 13.815 25.637 15.182a0.50005 0.50005 0 0 0 0.37891 0.0117c2.819-1.055 10.095-3.919 19.674-10.035 9.7379-6.2178 19.981-15.229 26.357-24.139 33.041-46.167 31.943-96.962 31.299-108.15a0.50005 0.50005 0 0 0-0.38281-0.45703c-6.6772-1.6029-28.151-6.8602-41.391-12.326-6.6571-2.7483-15.448-7.2416-22.523-11.643-5.7326-3.5656-8.831-5.7076-12.369-8.1367zm-0.25586 1.0293c3.4297 2.355 6.4938 4.4696 12.098 7.9551 7.1316 4.4358 15.943 8.9442 22.668 11.721 13.247 5.4689 34.255 10.616 41.168 12.277 0.6377 11.591 1.4595 61.622-31.123 107.15-6.2671 8.7567-16.448 17.724-26.084 23.877-9.3786 5.9884-16.425 8.7815-19.295 9.8594-3.1562-1.4131-13.684-6.275-25.254-14.975-7.5334-5.6643-14.838-12.891-20.018-19.904-32.091-43.456-30.47-94.643-29.689-106.15 6.736-1.5577 25.808-6.0789 38.867-11.506 6.2796-2.6096 16.044-6.5129 24.42-11.514 5.3252-3.1794 9.3114-6.3021 12.242-8.7871z" color="#000000" style="-inkscape-stroke:none"/>
			</g>
		</g>
		<g transform="matrix(.29375 0 0 .32338 -1181.1 328.28)" stroke-width=".67552" aria-label="2017">
			<g fill="#fffffd">
				<path d="m-1594.1 551.83v-1.9263q0-1.6756 0.6861-2.9026 0.6992-1.227 1.7811-1.9263 1.0819-0.69928 2.4013-1.2006 1.3194-0.50137 2.6388-0.80482 1.3325-0.31665 2.4144-0.6333 1.0819-0.32985 1.768-0.84441t0.6861-1.2534q0-1.4909-0.7653-2.0186-0.7652-0.54095-2.586-0.54095h-0.9367q-2.5464 0-3.3512 1.6228-0.5938 1.2402-1.7812 1.2402h-1.5701q-0.2375 0-0.5145-0.0924-0.2639-0.0923-0.5542-0.46178-0.2902-0.36943-0.2902-0.91037 0-1.5173 1.1478-2.7179 1.1611-1.2006 2.8763-1.8076 1.7152-0.60691 3.5755-0.60691h1.7812q1.7547 0 3.1137 0.30346 1.3722 0.29026 2.4936 0.97634 1.1215 0.67288 1.7284 1.9395 0.6069 1.2666 0.6069 3.0742 0 1.5437-0.686 2.7179-0.6861 1.1742-1.768 1.8735-1.0819 0.68608-2.4145 1.1874-1.3194 0.50136-2.6387 0.8312-1.3194 0.31666-2.4013 0.62011-1.0819 0.29027-1.7812 0.73886-0.686 0.43539-0.686 1.0291h10.951q0.5409 0 0.8972 0.36943 0.3694 0.36942 0.3694 0.88398v1.2402q0 0.51456-0.3826 0.88398-0.3694 0.35624-0.884 0.35624h-14.645q-0.5146 0-0.8972-0.35624-0.3826-0.36942-0.3826-0.88398z" color="#000000" style="-inkscape-stroke:none"/>
				<path d="m-1586.5 533.71c-1.277 0-2.5098 0.20759-3.6895 0.625-1.1869 0.41999-2.1938 1.0529-3.0059 1.8926-0.8143 0.8518-1.2402 1.8545-1.2402 2.9512 0 0.42103 0.1184 0.80988 0.3613 1.1191 0.2158 0.27468 0.4369 0.47711 0.709 0.57227v2e-3c0.2121 0.0708 0.4189 0.10938 0.6211 0.10938h1.5703c0.9078 0 1.65-0.52443 2.084-1.4277 0.4735-0.95486 1.423-1.4355 3.0488-1.4355h0.9375c1.1804 0 1.9836 0.19273 2.3906 0.48047v2e-3c0.3879 0.26745 0.6192 0.80409 0.6192 1.7402 0 0.38802-0.1555 0.68594-0.5508 0.98243-0.4169 0.31269-0.9706 0.58154-1.6641 0.79296-0.7136 0.20877-1.5123 0.41732-2.3945 0.62696-0.8946 0.20584-1.7888 0.47909-2.6816 0.81836-0.8997 0.34187-1.72 0.75223-2.4629 1.2324-0.7691 0.49706-1.403 1.1838-1.8926 2.043v2e-3c-0.4894 0.87518-0.7305 1.9032-0.7305 3.0664v1.9277c0 0.42675 0.1749 0.82624 0.4863 1.127v2e-3 2e-3c0.3103 0.28896 0.7059 0.44727 1.1269 0.44727h14.646c0.421 0 0.8145-0.15928 1.1172-0.45118 0.3114-0.30071 0.4863-0.7002 0.4863-1.127v-1.2402c0-0.42324-0.1679-0.81954-0.4687-1.1211-0.2965-0.3048-0.6995-0.4707-1.1348-0.4707h-10.373c0.08-0.13268 0.071-0.26809 0.2891-0.40625 0.4274-0.27419 0.9887-0.51032 1.6855-0.69727v-2e-3c0.7163-0.20091 1.5125-0.4069 2.3887-0.61719 0.8929-0.22323 1.7842-0.50496 2.6758-0.84375v2e-3c0.9077-0.34152 1.7318-0.74771 2.4746-1.2188v-2e-3c0.7663-0.49529 1.3933-1.1619 1.875-1.9863 0.4898-0.83849 0.7324-1.8095 0.7324-2.8887 0-1.2428-0.207-2.3198-0.6387-3.2207-0.4295-0.8965-1.0545-1.5992-1.8593-2.082-0.7815-0.47784-1.649-0.81691-2.5977-1.0176-0.9353-0.20853-1.9958-0.31055-3.1836-0.31055zm0 0.67579h1.7812c1.1503 0 2.1633 0.0993 3.0391 0.29492 0.8803 0.18621 1.6733 0.49715 2.3867 0.93359v2e-3c0.6905 0.41432 1.218 1.0046 1.5977 1.7969 0.3775 0.78793 0.5722 1.7605 0.5722 2.9277 0 0.97909-0.2138 1.8197-0.6386 2.5469-0.4332 0.74128-0.984 1.3247-1.6602 1.7617-0.6992 0.44317-1.4814 0.82765-2.3496 1.1543-0.8676 0.3297-1.7334 0.60376-2.5996 0.82032v-2e-3c-0.8817 0.21161-1.6848 0.41966-2.4102 0.62305-0.7448 0.19983-1.3684 0.45595-1.873 0.7793-0.516 0.32748-0.8438 0.78855-0.8438 1.3144v0.33789h11.289c0.2837 0 0.476 0.0808 0.6543 0.26563v2e-3 2e-3c0.1908 0.19084 0.2695 0.38427 0.2695 0.64649v1.2402c0 0.25933-0.081 0.44878-0.2793 0.64063-0.1898 0.18309-0.3833 0.26171-0.6484 0.26171h-14.646c-0.2642 0-0.465-0.0791-0.6641-0.26367-0.1971-0.19113-0.2773-0.3803-0.2773-0.63867v-1.9277c0-1.0703 0.2177-1.9738 0.6426-2.7344v-2e-3c0.4425-0.77622 0.9968-1.3736 1.6699-1.8086 0.6996-0.45218 1.4784-0.84136 2.3379-1.168 0.8658-0.32901 1.7317-0.59231 2.5957-0.79102 0.893-0.2122 1.7037-0.4256 2.4317-0.63867v-2e-3c0.7491-0.22838 1.3732-0.5231 1.8711-0.89649 0.5195-0.3896 0.8223-0.92632 0.8223-1.5234 0-1.0505-0.2792-1.8583-0.9102-2.2949-0.6133-0.43288-1.5328-0.60156-2.7793-0.60156h-0.92c-1.7694 0-3.0548 0.60163-3.6543 1.8106v2e-3 2e-3c-0.3579 0.74772-0.8025 1.0469-1.4765 1.0469h-1.5703c-0.114 0-0.2481-0.0223-0.4043-0.0742-0.08-0.0289-0.2266-0.13337-0.3965-0.34961-0.144-0.18331-0.2168-0.4029-0.2168-0.70313 0-0.92582 0.3375-1.7337 1.0528-2.4824 0.736-0.76112 1.646-1.3354 2.7461-1.7246 1.1072-0.39179 2.2594-0.58593 3.4629-0.58593z" color="#000000" style="-inkscape-stroke:none"/>
				<path d="m-1574.4 548.18q-0.7256-1.9131-0.7256-4.5651 0-2.652 0.7256-4.5519 0.7389-1.8999 2.0715-2.9686 1.3457-1.0687 2.995-1.5569 1.6492-0.48817 3.6942-0.48817h0.9236q2.0582 0 3.6942 0.48817 1.6493 0.48817 2.9818 1.5569 1.3458 1.0687 2.0715 2.9686 0.7388 1.8999 0.7388 4.5519 0 2.652-0.7388 4.5651-0.7257 1.8999-2.0715 2.9686-1.3325 1.0555-2.9818 1.5437-1.636 0.48817-3.6942 0.48817h-0.9236q-2.0582 0-3.7074-0.48817-1.6361-0.48817-2.9818-1.5437-1.3326-1.0687-2.0715-2.9686zm9.2225-10.397q-4.9741 0-4.9741 5.8449 0 5.8317 4.9741 5.8317t4.9741-5.8317q0-5.8449-4.9741-5.8449z" color="#000000" style="-inkscape-stroke:none"/>
				<path d="m-1565.6 533.71c-1.3902 0-2.6531 0.16573-3.789 0.50196-1.1399 0.33739-2.1793 0.87655-3.1094 1.6152v2e-3c-0.9408 0.75453-1.6641 1.7988-2.1738 3.1094v2e-3c-0.5024 1.3155-0.746 2.8731-0.746 4.6719s0.244 3.3618 0.746 4.6855v2e-3c0.5097 1.3106 1.233 2.3548 2.1738 3.1094v2e-3 2e-3c0.9296 0.72909 1.9635 1.2643 3.0938 1.6016 1.1361 0.3363 2.4039 0.50196 3.8027 0.50195h0.9238c1.3989 0 2.6632-0.1654 3.7911-0.50195 1.1393-0.33722 2.174-0.87346 3.0957-1.6035 0.9497-0.7542 1.6747-1.8007 2.1757-3.1113 0.5115-1.3243 0.7618-2.8882 0.7618-4.6875s-0.25-3.3578-0.7618-4.6738c-0.5006-1.3097-1.2251-2.3553-2.1738-3.1094-0.9218-0.73931-1.9575-1.2797-3.0976-1.6172-1.1279-0.33655-2.3922-0.50196-3.7911-0.50196zm0 0.67579h0.9238c1.3455 0 2.5442 0.1583 3.5977 0.47265 1.0589 0.31344 2.0103 0.81243 2.8652 1.498 0.8441 0.67023 1.5003 1.6029 1.9668 2.8242v2e-3c0.4733 1.2171 0.7149 2.6931 0.7149 4.4297s-0.2412 3.2169-0.7149 4.4434v2e-3c-0.4665 1.2213-1.1227 2.154-1.9668 2.8242-0.855 0.67729-1.8074 1.1707-2.8671 1.4844-1.0535 0.31435-2.2522 0.47461-3.5977 0.47461h-0.9238c-1.3447 0-2.547-0.16034-3.6094-0.47461-1.0499-0.31348-2.0033-0.80899-2.8672-1.4863-0.8335-0.66966-1.4883-1.603-1.9629-2.8223-0.4654-1.227-0.7051-2.7082-0.7051-4.4453s0.24-3.214 0.7051-4.4316c0.4754-1.2212 1.1315-2.1543 1.9668-2.8242 0.8637-0.68568 1.8202-1.1847 2.8789-1.498 1.063-0.31466 2.2612-0.47265 3.5976-0.47265zm0.4629 3.0586c-1.7242 0-3.0872 0.5213-3.9883 1.5801-0.901 1.0588-1.3242 2.6054-1.3242 4.6016 0 1.9919 0.4231 3.5372 1.3242 4.5938 0.9012 1.0565 2.2643 1.5762 3.9883 1.5762s3.0871-0.51964 3.9883-1.5762 1.3242-2.6018 1.3242-4.5938c0-1.9962-0.4232-3.5428-1.3242-4.6016-0.9011-1.0588-2.2641-1.5801-3.9883-1.5801zm0 0.67383c1.5919 0 2.7157 0.45424 3.4727 1.3438 0.757 0.8895 1.164 2.2637 1.164 4.1641 0 1.8959-0.4072 3.2669-1.164 4.1543-0.7569 0.88735-1.8807 1.3398-3.4727 1.3398s-2.7177-0.45249-3.4746-1.3398c-0.7569-0.88736-1.1621-2.2584-1.1621-4.1543 0-1.9004 0.4071-3.2746 1.1641-4.1641 0.7569-0.88951 1.8807-1.3438 3.4726-1.3438z" color="#000000" style="-inkscape-stroke:none"/>
				<path d="m-1554.2 538.76q-0.1584-0.2243-0.1584-0.46179 0-0.36942 0.4354-0.73885l3.2193-2.7707q0.6993-0.62011 1.9395-0.6333h1.9395q0.5409 0 0.9104 0.36943 0.3694 0.36942 0.3694 0.88398v16.426q0 0.51456-0.3826 0.88398-0.3826 0.35624-0.8972 0.35624h-2.4541q-0.5145 0-0.8839-0.34304-0.3563-0.35623-0.3563-0.87079v-12.758l-1.5173 1.1083q-0.2638 0.18472-0.6069 0.11875-0.343-0.066-0.5541-0.30346z" color="#000000" style="-inkscape-stroke:none"/>
				<path d="m-1548.8 533.81c-0.8825 9e-3 -1.6207 0.24037-2.1602 0.71875l-3.2148 2.7676c-0.3314 0.28181-0.5528 0.61605-0.5528 0.99414 0 0.23342 0.083 0.46084 0.2207 0.65625v8e-3l0.01 8e-3 1.0098 1.2734 0.01 8e-3c0.1908 0.21458 0.4524 0.35438 0.7422 0.41015 0.3019 0.058 0.6175-3.8e-4 0.8652-0.17383v-2e-3l0.9844-0.7168v12.092c0 0.421 0.16 0.8144 0.455 1.1094v6e-3 4e-3c0.3035 0.2819 0.6971 0.4336 1.1152 0.4336h2.4531c0.421 0 0.8166-0.15831 1.127-0.44727v-2e-3 -2e-3c0.3115-0.30071 0.4844-0.7002 0.4844-1.127v-16.426c0-0.42387-0.1651-0.82132-0.4668-1.123-0.3046-0.30455-0.7129-0.46875-1.1504-0.46875h-1.9414zm0 0.67578h1.9394c0.2837 0 0.4838 0.0815 0.6719 0.26954 0.1908 0.19083 0.2695 0.38427 0.2695 0.64648v16.426c0 0.25866-0.082 0.44733-0.2793 0.63867-0.1981 0.18263-0.3992 0.26368-0.6621 0.26367h-2.4531c-0.2663 0-0.4625-0.0788-0.6504-0.25195-0.1752-0.17788-0.252-0.3633-0.252-0.625v-13.424l-2.0488 1.498c-0.104 0.0729-0.194 0.0924-0.3496 0.0625-0.1668-0.0321-0.2728-0.094-0.3633-0.19531l-0.9825-1.2422c-0.069-0.10041-0.094-0.18029-0.094-0.26172 0-0.11358 0.069-0.27207 0.3164-0.48242l3.2227-2.7734v-2e-3c0.3921-0.34771 0.9462-0.53794 1.7149-0.54688z" color="#000000" style="-inkscape-stroke:none"/>
				<path d="m-1543.4 536.65v-1.2402q0-0.51456 0.3826-0.88398 0.3826-0.36943 0.8972-0.36943h14.13q0.5146 0 0.884 0.36943 0.3826 0.36942 0.3826 0.88398v1.2138q0 0.92357-0.8048 2.4013l-6.9267 12.811q-0.6729 1.2402-1.7284 1.2402h-2.7047q-0.541 0-0.7521-0.34304-0.2111-0.35623 0-0.76524l7.626-14.078h-10.106q-0.541 0-0.9104-0.35623-0.3694-0.36942-0.3694-0.88398z" color="#000000" style="-inkscape-stroke:none"/>
				<path d="m-1542.2 533.81c-0.4238 0-0.8233 0.166-1.1328 0.46485-0.3114 0.30071-0.4843 0.7002-0.4843 1.127v1.2383c0 0.42387 0.1651 0.82132 0.4668 1.123v2e-3 4e-3c0.3056 0.29468 0.7097 0.44922 1.1445 0.44922h9.5391l-7.3574 13.582v4e-3c-0.1801 0.34896-0.185 0.76306 0.01 1.0918v4e-3 2e-3c0.2082 0.33838 0.6089 0.50391 1.041 0.50391h2.705c0.836 0 1.5415-0.52609 2.0254-1.418l6.9258-12.811c0.5507-1.0111 0.8457-1.8487 0.8457-2.5625v-1.2129c0-0.42435-0.1743-0.82293-0.4824-1.123-4e-4 -4.4e-4 -0 4.5e-4 -0 0-0.3015-0.30089-0.6958-0.46875-1.1191-0.46875zm0 0.67578h14.131c0.2622 0 0.4537 0.0787 0.6445 0.26954v2e-3 2e-3c0.1987 0.19185 0.2793 0.38325 0.2793 0.64258v1.2129c0 0.51761-0.2412 1.2811-0.7636 2.2402l-6.9278 12.812c-0.4128 0.75955-0.859 1.0625-1.4297 1.0625h-2.705c-0.2868 0-0.3879-0.0646-0.461-0.18164-0.084-0.14339-0.091-0.23877 0.01-0.43164 5e-4 -8.7e-4 -4e-4 -1e-3 0-2e-3l7.8946-14.57h-10.674c-0.2855 0-0.4874-0.0808-0.6738-0.25977-0.1893-0.19015-0.2695-0.38327-0.2695-0.64453v-1.2383c0-0.25933 0.082-0.45073 0.2812-0.64258 0.2007-0.19372 0.3999-0.27344 0.6621-0.27344z" color="#000000" style="-inkscape-stroke:none"/>
			</g>
		</g>
		<g transform="matrix(.26397 0 0 .2652 -1234 359.01)" stroke-width="0" aria-label="AMA">
			<g fill="#fffffd">
				<g fill="#fffffd">
					<path d="m-1570.6 607.88h-4.6236l-11.691-37.517h-25.364v8.5206h2.7081l-8.9169 28.997h-4.4915v8.6527h21.004v-8.6527h-5.152l1.3871-4.4915h13.54l1.3871 4.4915h-6.2749v8.6527h26.487zm-28.402-26.685 4.3594 14.267h-8.6527z" color="#000000" style="-inkscape-stroke:none"/>
					<path d="m-1570.6 607.88h-4.6236l-11.691-37.517h-25.364v8.5206h2.7081l-8.9169 28.997h-4.4915v8.6527h21.004v-8.6527h-5.152l1.3871-4.4915h13.54l1.3871 4.4915h-6.2749v8.6527h26.487zm-28.402-26.685 4.3594 14.267h-8.6527z" color="#000000" style="-inkscape-stroke:none"/>
					<path d="m-1570.6 607.88h-4.6236l-11.691-37.517h-25.364v8.5206h2.7081l-8.9169 28.997h-4.4915v8.6527h21.004v-8.6527h-5.152l1.3871-4.4915h13.54l1.3871 4.4915h-6.2749v8.6527h26.487zm-28.402-26.685 4.3594 14.267h-8.6527z" color="#000000" style="-inkscape-stroke:none"/>
					<path d="m-1570.6 607.88h-4.6236l-11.691-37.517h-25.364v8.5206h2.7081l-8.9169 28.997h-4.4915v8.6527h21.004v-8.6527h-5.152l1.3871-4.4915h13.54l1.3871 4.4915h-6.2749v8.6527h26.487zm-28.402-26.685 4.3594 14.267h-8.6527z" color="#000000" style="-inkscape-stroke:none"/>
					<path d="m-1521.9 581.99v3.897l0.066 22.061h-3.7649v8.5867h20.872v-8.5867h-3.6328v-29.063h3.6328v-8.5206h-25.166l-6.3409 24.703-6.6712-24.703h-25.034v8.5206h3.5008v29.129h-3.5668v8.5206h17.9v-8.5206h-3.7649v-26.024h0.2642c0.1981 3.3026 1.0568 7.0675 1.3871 8.1904l7.3977 26.355h13.805l6.9354-25.694c0.4623-1.5192 1.387-5.8786 1.9155-8.8509z" color="#000000" style="-inkscape-stroke:none"/>
					<path d="m-1521.9 581.99v3.897l0.066 22.061h-3.7649v8.5867h20.872v-8.5867h-3.6328v-29.063h3.6328v-8.5206h-25.166l-6.3409 24.703-6.6712-24.703h-25.034v8.5206h3.5008v29.129h-3.5668v8.5206h17.9v-8.5206h-3.7649v-26.024h0.2642c0.1981 3.3026 1.0568 7.0675 1.3871 8.1904l7.3977 26.355h13.805l6.9354-25.694c0.4623-1.5192 1.387-5.8786 1.9155-8.8509z" color="#000000" style="-inkscape-stroke:none"/>
					<path d="m-1521.9 581.99v3.897l0.066 22.061h-3.7649v8.5867h20.872v-8.5867h-3.6328v-29.063h3.6328v-8.5206h-25.166l-6.3409 24.703-6.6712-24.703h-25.034v8.5206h3.5008v29.129h-3.5668v8.5206h17.9v-8.5206h-3.7649v-26.024h0.2642c0.1981 3.3026 1.0568 7.0675 1.3871 8.1904l7.3977 26.355h13.805l6.9354-25.694c0.4623-1.5192 1.387-5.8786 1.9155-8.8509z" color="#000000" style="-inkscape-stroke:none"/>
					<path d="m-1521.9 581.99v3.897l0.066 22.061h-3.7649v8.5867h20.872v-8.5867h-3.6328v-29.063h3.6328v-8.5206h-25.166l-6.3409 24.703-6.6712-24.703h-25.034v8.5206h3.5008v29.129h-3.5668v8.5206h17.9v-8.5206h-3.7649v-26.024h0.2642c0.1981 3.3026 1.0568 7.0675 1.3871 8.1904l7.3977 26.355h13.805l6.9354-25.694c0.4623-1.5192 1.387-5.8786 1.9155-8.8509z" color="#000000" style="-inkscape-stroke:none"/>
					<path d="m-1449.7 607.88h-4.6236l-11.691-37.517h-25.364v8.5206h2.7081l-8.917 28.997h-4.4915v8.6527h21.004v-8.6527h-5.152l1.3871-4.4915h13.54l1.3871 4.4915h-6.2749v8.6527h26.487zm-28.402-26.685 4.3594 14.267h-8.6527z" color="#000000" style="-inkscape-stroke:none"/>
					<path d="m-1449.7 607.88h-4.6236l-11.691-37.517h-25.364v8.5206h2.7081l-8.917 28.997h-4.4915v8.6527h21.004v-8.6527h-5.152l1.3871-4.4915h13.54l1.3871 4.4915h-6.2749v8.6527h26.487zm-28.402-26.685 4.3594 14.267h-8.6527z" color="#000000" style="-inkscape-stroke:none"/>
					<path d="m-1449.7 607.88h-4.6236l-11.691-37.517h-25.364v8.5206h2.7081l-8.917 28.997h-4.4915v8.6527h21.004v-8.6527h-5.152l1.3871-4.4915h13.54l1.3871 4.4915h-6.2749v8.6527h26.487zm-28.402-26.685 4.3594 14.267h-8.6527z" color="#000000" style="-inkscape-stroke:none"/>
					<path d="m-1449.7 607.88h-4.6236l-11.691-37.517h-25.364v8.5206h2.7081l-8.917 28.997h-4.4915v8.6527h21.004v-8.6527h-5.152l1.3871-4.4915h13.54l1.3871 4.4915h-6.2749v8.6527h26.487zm-28.402-26.685 4.3594 14.267h-8.6527z" color="#000000" style="-inkscape-stroke:none"/>
				</g>
			</g>
		</g>
		<path d="m-1647.7 525.27c-0.6861-0.0139-1.1821 0.025-1.1821 0.025l-0.1883 0.0138v1.5347l-1.2451 4e-3v1.7544l-1.0075-5e-3v14.369l11.841-0.0156a0.20372 0.19899 0 0 0 0.022-4e-3 0.20372 0.19899 0 0 0 0 4e-3l11.841 0.0156v-14.369l-1.0075 5e-3v-1.7544l-1.2457-4e-3v-1.5347l-0.1878-0.0138s-1.9848-0.1547-3.5052 0.26567c-3.7261 1.0301-5.574 2.4925-5.9069 2.7724-0.3328-0.27994-2.1811-1.7423-5.9073-2.7724-0.7602-0.21017-1.6365-0.27682-2.3226-0.29068zm0 0.40231c0.6653 0.0144 1.5062 0.077 2.2079 0.27103 3.8559 1.066 5.6513 2.5959 5.8145 2.7394 0 2e-5 -1e-4 5.3e-4 0 5.3e-4l-0.015 12.602c-0.088-0.0508-0.095-0.0581-0.2161-0.12324-0.2962-0.15915-0.6508-0.33682-0.9431-0.4157-1.3258-0.35784-3.3256-0.49899-5.0068-0.55725-1.5659-0.0543-2.6618-0.0304-2.8309-0.0272l0.021-13.119v-1.3537c0.1265-7e-3 0.4101-0.0286 0.9672-0.0165zm16.452 0c0.5571-0.0121 0.8408 9e-3 0.9672 0.0165l0.023 14.473c-0.1693-3e-3 -1.2652-0.027-2.8309 0.0272-1.6812 0.0583-3.6809 0.19987-5.0068 0.5577-0.2923 0.0789-0.6465 0.25655-0.9426 0.4157-0.1215 0.0653-0.1284 0.0728-0.2166 0.12369l-0.015-12.604c0.1643-0.14441 1.9594-1.6733 5.814-2.7389 0.7017-0.19401 1.5426-0.25661 2.2079-0.27103zm-17.829 1.5695-0.021 13.32 0.2084-4e-3s1.3478-0.0288 3.0165 0.029 3.6629 0.20658 4.9126 0.54385c0.2161 0.0583 0.5696 0.22716 0.8548 0.38043 0.075 0.0405 0.071 0.0404 0.1344 0.0763l-9.9345-0.12279-0.01-12.662v-1.5588zm19.207 0 0.837 2e-3v1.5588l-0.01 12.662-9.9336 0.12279c0.063-0.0358 0.059-0.036 0.1335-0.0763 0.2852-0.15328 0.6392-0.32256 0.8553-0.38088 1.2496-0.33727 3.2439-0.48558 4.9126-0.54341 1.6686-0.0578 3.016-0.029 3.016-0.029l0.2084 4e-3zm-17.614 0.58181a0.20372 0.19899 0 0 0-0.219 0.18307 0.20372 0.19899 0 0 0 0.1879 0.21343s1.6613 0.13557 2.3715 0.37195c2.6673 0.88784 4.2421 2.0553 4.2421 2.0553a0.20372 0.19899 0 0 0 0.2856-0.0384 0.20372 0.19899 0 0 0-0.039-0.27863s-1.6323-1.2082-4.3567-2.1151c-0.8394-0.27939-2.4721-0.39159-2.4721-0.39159zm16.023 0s-1.6326 0.11216-2.4721 0.39159c-2.7244 0.90685-4.3566 2.1147-4.3566 2.1147a0.20372 0.19899 0 0 0-0.039 0.27908 0.20372 0.19899 0 0 0 0.2852 0.0384s1.5747-1.1675 4.242-2.0553c0.7101-0.23641 2.3719-0.37195 2.3719-0.37195a0.20372 0.19899 0 0 0 0.1875-0.21343 0.20372 0.19899 0 0 0-0.2186-0.18307zm-19.458 1.1725 0.6007 4e-3 0.01 12.858 10.652 0.13172v2e-3 -2e-3l0.1683 2e-3a0.20372 0.19899 0 0 0 0.01-9e-3 0.20372 0.19899 0 0 0 0.023 9e-3l0.1688-2e-3v2e-3 -2e-3l10.652-0.13172 0.01-12.858 0.6001-4e-3v13.57l-11.433-0.0147a0.20372 0.19899 0 0 0-0.019 8e-3 0.20372 0.19899 0 0 0-0.01-8e-3l-11.433 0.0152zm3.4448 0.99618a0.20372 0.19899 0 0 0-0.2272 0.17324 0.20372 0.19899 0 0 0 0.1774 0.22192s2.0039 0.24859 3.1966 0.74747c1.3671 0.57184 3.3652 1.5985 3.3652 1.5985a0.20372 0.19899 0 0 0 0.2752-0.0835 0.20372 0.19899 0 0 0-0.085-0.2688s-1.9975-1.028-3.3946-1.6124c-1.2965-0.5423-3.3072-0.77648-3.3072-0.77648zm16.004 0s-2.0102 0.23422-3.3068 0.77648c-1.3971 0.58437-3.395 1.6124-3.395 1.6124a0.20372 0.19899 0 0 0-0.085 0.2688 0.20372 0.19899 0 0 0 0.2752 0.0835s1.9981-1.0267 3.3652-1.5985c1.1928-0.49885 3.1967-0.74747 3.1967-0.74747a0.20372 0.19899 0 0 0 0.1774-0.22192 0.20372 0.19899 0 0 0-0.2272-0.17324zm-15.999 2.5099a0.20372 0.19899 0 0 0-0.2112 0.19155 0.20372 0.19899 0 0 0 0.1966 0.20629s1.7515 0.068 2.5393 0.25406c1.3351 0.31537 3.9572 1.5079 3.9572 1.5079a0.20372 0.19899 0 0 0 0.2711-0.0956 0.20372 0.19899 0 0 0-0.098-0.26478s-2.5936-1.1942-4.035-1.5347c-0.8939-0.21111-2.6202-0.26478-2.6202-0.26478zm15.994 0s-1.7267 0.0537-2.6206 0.26478c-1.4414 0.34045-4.0346 1.5347-4.0346 1.5347a0.20372 0.19899 0 0 0-0.098 0.26478 0.20372 0.19899 0 0 0 0.2711 0.0956s2.6225-1.1925 3.9576-1.5079c0.7878-0.18602 2.5393-0.25406 2.5393-0.25406a0.20372 0.19899 0 0 0 0.1961-0.20629 0.20372 0.19899 0 0 0-0.2107-0.19155zm-0.011 2.3018s-1.9242 0.16909-2.8986 0.31391c-0.3804 0.0565-1.2673 0.28406-2.0858 0.50009s-1.5505 0.41883-1.5505 0.41883a0.20372 0.19899 0 0 0-0.1404 0.24603 0.20372 0.19899 0 0 0 0.2514 0.13708s0.7305-0.2027 1.546-0.41793c0.8155-0.21524 1.7338-0.44468 2.0405-0.49028 0.9419-0.13997 2.8744-0.31122 2.8744-0.31122a0.20372 0.19899 0 0 0 0.1842-0.21611 0.20372 0.19899 0 0 0-0.2212-0.1804zm-15.971 0.10985a0.20372 0.19899 0 0 0-0.2122 0.19021 0.20372 0.19899 0 0 0 0.1948 0.20718s1.9465 0.0842 2.8757 0.22237c0.6582 0.0978 2.0126 0.44607 2.0126 0.44607a0.20372 0.19899 0 0 0 0.2492-0.14155 0.20372 0.19899 0 0 0-0.1449-0.24335s-1.3396-0.34811-2.0557-0.45455c-0.987-0.14672-2.9195-0.22638-2.9195-0.22638zm0.012 1.9468a0.20372 0.19899 0 0 0-0.2135 0.18932 0.20372 0.19899 0 0 0 0.1938 0.20808s2.8857 0.13705 4.2544 0.40097c0.747 0.14404 2.2741 0.672 2.2741 0.672a0.20372 0.19899 0 0 0 0.2606-0.12056 0.20372 0.19899 0 0 0-0.1239-0.25451s-1.5061-0.52799-2.3317-0.68718c-1.4473-0.27908-4.3138-0.40812-4.3138-0.40812zm16.125 0.10984s-3.0333 0.0166-4.4939 0.29828c-0.8256 0.1592-2.3319 0.68718-2.3319 0.68718a0.20372 0.19899 0 0 0-0.1233 0.25407 0.20372 0.19899 0 0 0 0.2601 0.121s1.5271-0.52796 2.2741-0.672c1.3554-0.26135 4.4176-0.29024 4.4176-0.29024a0.20372 0.19899 0 0 0 0.2024-0.20048 0.20372 0.19899 0 0 0-0.2051-0.19781z" color="#000000" style="-inkscape-stroke:none"/>
		<path d="m-1647.7 525.15c-0.6881-0.0136-1.1895 0.0254-1.1895 0.0254l-0.2949 0.0215v1.5273l-1.2461 4e-3v1.7539l-1.0078-6e-3v14.602l11.863-0.0156h0.1015l11.971 0.0156v-14.602l-1.0078 6e-3v-1.7539l-1.2461-4e-3v-1.5273l-0.2929-0.0215c-0-1.7e-4 -1.9915-0.15943-3.543 0.26953-3.6619 1.0124-5.4768 2.4146-5.8769 2.7461-0.4001-0.33158-2.2149-1.7337-5.877-2.7461-0.7748-0.21423-1.6565-0.2808-2.3476-0.29492-0-2e-5 -8e-4 2e-5 -0 0zm-0 0.23242c5e-4 1e-5 0-1e-5 0 0 6e-4 1e-5 0-1e-5 0 0 0.6801 0.0139 1.548 0.0797 2.291 0.28516 3.7086 1.0253 5.5401 2.4781 5.8633 2.75l0.074 0.0625 0.074-0.0625c0.3234-0.27194 2.1548-1.7248 5.8633-2.75 1.4884-0.41154 3.4648-0.26172 3.4648-0.26172l0.082 6e-3v1.543l1.2461 4e-3v1.7559l1.0078-6e-3v14.137l-11.609-0.0156v-0.0352l-0.1445 0.0352-11.719 0.0156v-14.137l1.0078 6e-3v-1.7559l1.2442-4e-3v-1.543l0.082-6e-3s0.4891-0.037 1.168-0.0234zm-0.01 0.16992c-0.5478-0.0112-0.8434 0.0109-0.9648 0.0176l-0.1094 6e-3v1.4629l-0.022 13.238 0.1191-2e-3c0.1706-3e-3 1.2614-0.0288 2.8243 0.0254 1.6779 0.0581 3.6755 0.20248 4.9804 0.55469 0.2729 0.0736 0.626 0.24833 0.92 0.40625 0.1195 0.0643 0.123 0.0692 0.2128 0.12109l0.1719 0.0996 0.016-12.791 0.012-0.0547-0.012-0.01v-0.0625h-0.08c-0.2136-0.18603-1.9954-1.6794-5.8184-2.7363-0.7184-0.19865-1.5659-0.26087-2.2363-0.27539h-0.012zm16.461 0c-0.6704 0.0145-1.5179 0.0768-2.2363 0.27539-3.8731 1.0708-5.6853 2.6107-5.8594 2.7637l-0.039 0.0351 0.014 12.855 0.1738-0.0996c0.09-0.052 0.093-0.0586 0.2129-0.12304 0.2938-0.15794 0.6451-0.33066 0.9179-0.4043 1.3051-0.35221 3.3046-0.4965 4.9825-0.55469 1.5626-0.0541 2.6528-0.0304 2.8242-0.0273l0.1172 2e-3 -0.024-14.699-0.1074-6e-3c-0.1238-7e-3 -0.4157-0.0298-0.9766-0.0176zm-16.455 0.23243c0.6602 0.0143 1.4947 0.0762 2.1797 0.26562 3.7881 1.0473 5.5377 2.5214 5.7305 2.6894l-0.016 12.342c-0.017-0.01-0.02-0.0119-0.045-0.0254-0.2985-0.16038-0.657-0.34165-0.9687-0.42578-1.3467-0.36347-3.3487-0.50217-5.0332-0.56055-1.5041-0.0521-2.4849-0.0299-2.7188-0.0254l0.021-13.006v-1.2402c0.1461-9e-3 0.3576-0.0243 0.8477-0.0137zm16.459 0c0.4902-0.0107 0.7042 5e-3 0.8496 0.0137l0.023 14.246c-0.2335-4e-3 -1.2167-0.0267-2.7207 0.0254-1.6845 0.0584-3.6845 0.1971-5.0313 0.56055-0.3117 0.0842-0.6703 0.26541-0.9687 0.42578-0.025 0.0136-0.027 0.0158-0.045 0.0254l-0.016-12.342c0.1938-0.16889 1.9417-1.6426 5.7285-2.6894 0.685-0.18939 1.5195-0.25132 2.1797-0.26562zm-17.832 1.3379-0.9531 2e-3v1.6758l0.01 12.775 10.049 0.12305 0.059-0.21485c-0.062-0.0349-0.06-0.0368-0.1367-0.0781-0.2891-0.15537-0.6412-0.32596-0.8809-0.39063-1.2713-0.3431-3.2651-0.48894-4.9375-0.54687-1.6722-0.0579-3.0234-0.0293-3.0234-0.0293l-0.09 2e-3 0.022-13.318zm19.092 0v0.11523l0.02 13.203-0.092-2e-3s-1.3494-0.0306-3.0215 0.0274c-1.6724 0.058-3.6682 0.20571-4.9395 0.54882-0.2398 0.0647-0.5898 0.23527-0.8789 0.39063-0.076 0.0412-0.076 0.0415-0.1367 0.0762l0.059 0.2168 10.049-0.12305 0.01-12.777v-1.6739zm-19.207 0.23047-0.022 13.322 0.3262-6e-3s1.3465-0.0284 3.0117 0.0293c1.665 0.0577 3.6567 0.20958 4.8848 0.54101 0.1157 0.0312 0.3177 0.13653 0.5 0.22266l-9.2989-0.11523-0.01-12.549v-1.4434zm19.438 0 0.6055 2e-3v1.4434l-0.01 12.549-9.3008 0.11523c0.1836-0.0869 0.3856-0.1932 0.502-0.22461 1.2279-0.33142 3.2216-0.48136 4.8867-0.53906s3.0098-0.0293 3.0097-0.0293l0.3262 6e-3zm-17.721 0.35156c-0.1732-0.0132-0.3301 0.11559-0.3438 0.28906-0.013 0.17344 0.1218 0.3252 0.295 0.33789 0 0 0.4127 0.0346 0.914 0.0977 0.5014 0.0631 1.094 0.15778 1.4297 0.26953 2.6514 0.88255 4.209 2.0371 4.209 2.0371 0.1396 0.10353 0.3407 0.0769 0.4473-0.0605 0.1064-0.13711 0.077-0.33794-0.062-0.44141 0 0-1.6482-1.2206-4.3887-2.1328-0.8732-0.29065-2.5-0.39648-2.5-0.39648zm16.006 0s-1.6266 0.10579-2.5 0.39648c-2.7404 0.9122-4.3886 2.1328-4.3886 2.1328-0.1397 0.1035-0.1695 0.3042-0.062 0.44141 0.1065 0.13708 0.3058 0.16367 0.4453 0.0605 0 0 1.5576-1.1546 4.209-2.0371 0.3357-0.11176 0.9301-0.20644 1.4316-0.26953 0.5015-0.0631 0.9141-0.0977 0.9141-0.0977 0.1729-0.013 0.3064-0.16467 0.2929-0.33789-0.014-0.17322-0.1688-0.30195-0.3418-0.28906zm-16.023 0.23047h0.01c0.01 3.6e-4 1.6351 0.11901 2.4394 0.38672 2.7083 0.90153 4.3242 2.0976 4.3242 2.0976 0.04 0.0295 0.045 0.0774 0.016 0.11524-0.029 0.038-0.085 0.0451-0.125 0.0156 0 0-1.5922-1.1791-4.2754-2.0723-0.3745-0.12464-0.9658-0.21552-1.4727-0.2793-0.5068-0.0638-0.9258-0.0977-0.9258-0.0977-0.051-4e-3 -0.086-0.044-0.082-0.0898 0-0.0458 0.044-0.0801 0.096-0.0762zm16.033 0h0.01c0.051-4e-3 0.09 0.0304 0.094 0.0762 0 0.0458-0.029 0.086-0.08 0.0898 0 0-0.4168 0.0339-0.9238 0.0977-0.5069 0.0638-1.1002 0.15464-1.4746 0.2793-2.6832 0.89309-4.2734 2.0723-4.2734 2.0723-0.04 0.0294-0.096 0.0222-0.125-0.0156-0.03-0.0379-0.024-0.0858 0.016-0.11524 0 0 1.6159-1.1962 4.3242-2.0976 0.8038-0.26755 2.4299-0.38617 2.4375-0.38672zm-19.576 0.9414v13.803l11.506-0.0156 0.035 0.0293 0.061-0.0293 11.523 0.0137v-13.801l-0.83 4e-3 -0.01 12.859-10.422 0.12891-0.2304 2e-3v2e-3h-0.033l-0.066-0.0312-0.031 0.0312h-0.01v-2e-3l-0.2305-2e-3 -10.422-0.12891-0.01-12.859zm0.2325 0.23047 0.3691 4e-3 0.01 12.857 10.652 0.13086v-0.11133h0.2285l-0.1152 0.11328 0.1855 2e-3h0.025l0.1621-2e-3 -0.1152-0.11328h0.2285v0.11133l10.652-0.13086 0.01-12.857 0.3692-4e-3v13.34l-11.309-0.0156h-0.029l-11.326 0.0156zm3.3359 0.76563 0.01 2e-3c-0.1725-0.0208-0.3338 0.10081-0.3555 0.27344-0.022 0.17263 0.1068 0.32896 0.2793 0.34961 0 2.9e-4 2.002 0.25415 3.164 0.74023 1.3587 0.5683 3.3575 1.5938 3.3575 1.5938 0.1544 0.0794 0.3473 0.0222 0.4297-0.13086 0.082-0.15285 0.021-0.34618-0.1329-0.42578 0 0-1.9988-1.0293-3.4043-1.6172-1.3248-0.55415-3.3378-0.78515-3.3378-0.78515zm15.982 0s-2.013 0.23105-3.3379 0.78515c-1.4054 0.58786-3.4023 1.6172-3.4023 1.6172-0.1542 0.0796-0.2173 0.27293-0.1348 0.42578 0.082 0.1531 0.2752 0.21027 0.4297 0.13086 0 0 1.9988-1.0254 3.3574-1.5938 1.1629-0.48634 3.166-0.74023 3.166-0.74023 0.1725-0.0207 0.3012-0.17698 0.2793-0.34961-0.022-0.17263-0.185-0.29427-0.3574-0.27344l0.01-2e-3zm-16.004 0.23047 0.01 2e-3c0.01 1e-3 2.0044 0.2384 3.2696 0.76758 1.3881 0.5806 3.3828 1.6064 3.3847 1.6074 0.045 0.0231 0.06 0.0699 0.037 0.11133-0.022 0.0415-0.076 0.0581-0.1211 0.0351 0 0-1.9975-1.0262-3.373-1.6016-1.2226-0.5114-3.2266-0.75586-3.2266-0.75586-0.051-6e-3 -0.082-0.0481-0.076-0.0937 0.01-0.0457 0.047-0.0784 0.098-0.0723zm16.031 0c0.051-6e-3 0.092 0.0266 0.098 0.0723 0.01 0.0457-0.025 0.0876-0.076 0.0937 0 0-2.0058 0.2445-3.2285 0.75586-1.3756 0.57539-3.3731 1.6016-3.3731 1.6016-0.045 0.023-0.097 6e-3 -0.1191-0.0351-0.022-0.0415-0.01-0.0883 0.037-0.11133 0 0 1.9979-1.0265 3.3867-1.6074 1.2652-0.52915 3.258-0.76645 3.2676-0.76758zm-16.01 2.2793v2e-3c-0.1722-5e-3 -0.3236 0.12799-0.3301 0.30078-0.01 0.17412 0.1348 0.32035 0.3086 0.32617 0 0 1.761 0.0733 2.5176 0.25195 1.3046 0.30816 3.9355 1.5 3.9355 1.5 0.1579 0.0725 0.3486 6e-3 0.4239-0.15039 0.075-0.15676 0-0.34765-0.1543-0.41992 0 0-2.5866-1.1958-4.0567-1.543-0.9213-0.2176-2.64-0.2675-2.6425-0.26758zm15.988 0 0.031 4e-3 -0.016-4e-3zm0 0s-1.7225 0.0499-2.6446 0.26758c-1.47 0.34723-4.0546 1.543-4.0546 1.543-0.158 0.0723-0.2297 0.26316-0.1543 0.41992 0.075 0.15679 0.2659 0.22288 0.4238 0.15039 0 0 2.6309-1.1918 3.9355-1.5 0.7567-0.17866 2.5176-0.25195 2.5176-0.25195 0.1736-6e-3 0.3133-0.15233 0.3067-0.32617-0.01-0.17355-0.1569-0.30866-0.3301-0.30274zm-15.994 0.23242s1.73 0.0573 2.5957 0.26172c1.4128 0.33368 4.0137 1.5254 4.0137 1.5254v2e-3c0.046 0.021 0.063 0.067 0.043 0.10937-0.02 0.0423-0.073 0.0601-0.1192 0.0391 0 0-2.6129-1.1911-3.9785-1.5137-0.819-0.19342-2.5625-0.25781-2.5625-0.25781-0.052-2e-3 -0.086-0.0399-0.084-0.0859 0-0.0459 0.04-0.082 0.092-0.0801zm16.002 0c0.051-2e-3 0.09 0.0343 0.092 0.0801 0 0.0459-0.034 0.0841-0.086 0.0859 0 0-1.7416 0.0644-2.5606 0.25781-1.3656 0.32258-3.9785 1.5137-3.9785 1.5137-0.046 0.0211-0.097 3e-3 -0.1172-0.0391-0.02-0.0423-0-0.0884 0.041-0.10937v-2e-3s2.6009-1.1917 4.0136-1.5254c0.8658-0.20443 2.5977-0.26172 2.5977-0.26172zm-0.025 2.0703s-1.9229 0.1683-2.9062 0.31445c-0.3992 0.0593-1.2786 0.28578-2.0977 0.50195-0.8193 0.21625-1.5508 0.41992-1.5508 0.41992-0.1675 0.0463-0.2695 0.22353-0.2207 0.39063 0.048 0.16679 0.2254 0.26103 0.3926 0.21484 0 0 0.7303-0.20101 1.5449-0.41601 0.8144-0.21495 1.7433-0.44604 2.0274-0.48828 0.9327-0.13861 2.8671-0.31055 2.8671-0.31055 0.1727-0.0155 0.3052-0.16883 0.2891-0.3418-0.016-0.17321-0.1727-0.30039-0.3457-0.28515zm-15.957 0.10937c-0.1734-7e-3 -0.3244 0.12714-0.3321 0.30078-0.01 0.17363 0.1334 0.32086 0.3067 0.32813 0 0 1.9505 0.085 2.8633 0.2207 0.6415 0.0953 2 0.44336 2 0.44336 0.1681 0.0436 0.3452-0.0547 0.3906-0.22266 0.046-0.16788-0.06-0.34333-0.2285-0.38671 0 0-1.3348-0.34829-2.0664-0.45704-1.0027-0.14905-2.9336-0.22656-2.9336-0.22656zm15.976 0.1211c0.051-5e-3 0.093 0.0304 0.098 0.0762 0 0.0457-0.029 0.0852-0.08 0.0898 0 0-1.9298 0.17117-2.8808 0.3125-0.3293 0.049-1.2362 0.27666-2.0528 0.49219-0.8163 0.21545-1.5488 0.41797-1.5488 0.41797-0.049 0.0136-0.096-0.0122-0.1094-0.0566v-2e-3c-0.013-0.0445 0.011-0.0879 0.061-0.10156 0 0 0.7311-0.20215 1.5488-0.41797 0.8179-0.21588 1.7126-0.44434 2.0742-0.49804 0.9655-0.14349 2.8906-0.3125 2.8906-0.3125zm-15.984 0.10937s1.9349 0.0822 2.9062 0.22656c0.7006 0.10414 2.043 0.45117 2.043 0.45117 0.049 0.0128 0.073 0.0569 0.061 0.10157-0.012 0.0447-0.058 0.0714-0.1074 0.0586 0 0-1.3506-0.34699-2.0254-0.44726-0.9457-0.14062-2.8868-0.22461-2.8868-0.22461-0.051-2e-3 -0.086-0.0401-0.084-0.0859 0-0.0458 0.04-0.0822 0.092-0.0801zm0.021 1.7168c-0.1735-8e-3 -0.3255 0.12493-0.3339 0.29883-0.01 0.17359 0.1294 0.32006 0.3027 0.32812 0 0 2.8919 0.14078 4.2383 0.40039 0.7242 0.13964 2.2578 0.66797 2.2578 0.66797 0.164 0.0574 0.3486-0.0279 0.4082-0.19141 0.06-0.16359-0.031-0.34552-0.1953-0.40234 0 0-1.5011-0.52817-2.3477-0.69141-1.4686-0.2832-4.3301-0.41015-4.3301-0.41015zm16.119 0.10937s-3.0266 0.0136-4.5156 0.30078c-0.8466 0.16325-2.3477 0.69141-2.3477 0.69141-0.1637 0.0572-0.2547 0.2392-0.1953 0.40234 0.059 0.1634 0.2442 0.24825 0.4082 0.19141 0 0 1.5336-0.52833 2.2578-0.66797 1.3252-0.25552 4.3965-0.28906 4.3965-0.28906 0.1737-1e-3 0.3177-0.1424 0.3164-0.31641-0-0.17399-0.1466-0.31365-0.3203-0.3125zm-16.131 0.1211s2.8729 0.13129 4.2989 0.40625c0.8045 0.15514 2.3144 0.68359 2.3144 0.68359 0.048 0.0167 0.069 0.0616 0.053 0.10547-0.016 0.0438-0.065 0.0676-0.1132 0.0508 0 0-1.5193-0.52929-2.2891-0.67773-1.3911-0.26824-4.2715-0.40235-4.2715-0.40235-0.051-2e-3 -0.086-0.0401-0.084-0.0859 0-0.0459 0.04-0.0825 0.092-0.0801zm16.131 0.10937c0.052-3.4e-4 0.09 0.038 0.09 0.084 4e-4 0.0459-0.036 0.0837-0.088 0.084 0 0-3.0538 0.0238-4.4394 0.29102-0.7698 0.14844-2.2891 0.67773-2.2891 0.67773-0.048 0.0167-0.097-7e-3 -0.1133-0.0508v-2e-3c-0.016-0.0437 0-0.0868 0.053-0.10352 0 0 1.5098-0.52844 2.3144-0.68359 1.4322-0.27621 4.4727-0.29688 4.4727-0.29688z" color="#000000" style="-inkscape-stroke:none"/>
	</g>
</svg>
